<svg width="960" height="280" viewBox="0 0 960 280" fill="none" xmlns="http://www.w3.org/2000/svg">
  <defs>
    <linearGradient id="g1" x1="40" y1="24" x2="280" y2="256" gradientUnits="userSpaceOnUse">
      <stop stop-color="#1F6FEB"/>
      <stop offset="1" stop-color="#15B8A6"/>
    </linearGradient>
    <linearGradient id="g2" x1="44" y1="44" x2="236" y2="236" gradientUnits="userSpaceOnUse">
      <stop stop-color="#E9F2FF"/>
      <stop offset="1" stop-color="#CFE8FF"/>
    </linearGradient>
  </defs>

  <rect width="960" height="280" rx="22" fill="#FFFFFF"/>

  <g transform="translate(28 28)">
    <rect x="0" y="0" width="224" height="224" rx="46" fill="url(#g1)"/>
    <rect x="16" y="16" width="192" height="192" rx="36" fill="url(#g2)" fill-opacity="0.18"/>

    <path d="M50 146C79 114 100 103 123 103C147 103 165 115 176 131" stroke="#FFFFFF" stroke-width="11" stroke-linecap="round"/>
    <circle cx="84" cy="158" r="19" stroke="#FFFFFF" stroke-width="10"/>
    <circle cx="165" cy="158" r="19" stroke="#FFFFFF" stroke-width="10"/>

    <path d="M122 83L158 83" stroke="#FFFFFF" stroke-width="11" stroke-linecap="round"/>
    <path d="M131 83L109 126" stroke="#FFFFFF" stroke-width="11" stroke-linecap="round"/>

    <path d="M42 90C66 72 95 62 126 62C157 62 187 72 210 90" stroke="#FFFFFF" stroke-opacity="0.9" stroke-width="8" stroke-linecap="round"/>
    <path d="M52 62L126 30L200 62" stroke="#FFFFFF" stroke-opacity="0.8" stroke-width="7" stroke-linecap="round" stroke-linejoin="round"/>
  </g>

  <g transform="translate(290 70)">
    <text x="0" y="68" fill="#0F172A" font-family="Outfit, Avenir Next, Segoe UI, Arial, sans-serif" font-size="86" font-weight="700" letter-spacing="1.2">SKYWAY</text>
    <text x="2" y="126" fill="#1F6FEB" font-family="Outfit, Avenir Next, Segoe UI, Arial, sans-serif" font-size="28" font-weight="600" letter-spacing="3.2">COLLEGIATE CYCLING FINDER</text>
  </g>
</svg>
